<?xml version="1.0" encoding="UTF-8"?>
<svg xmlns="http://www.w3.org/2000/svg" viewBox="0 0 120 80" width="480" height="320" aria-labelledby="title">
  <title>City skyline icon</title>
  <rect width="100%" height="100%" fill="none"/>
  <g fill="#0b64a0">
    <rect x="6" y="36" width="16" height="38" rx="2"/>
    <rect x="26" y="22" width="16" height="52" rx="2"/>
    <rect x="46" y="10" width="20" height="64" rx="2"/>
    <rect x="70" y="30" width="18" height="44" rx="2"/>
    <rect x="92" y="40" width="14" height="34" rx="2"/>
  </g>
  <g fill="#9bd7ff">
    <rect x="10" y="42" width="3" height="6"/>
    <rect x="14" y="50" width="3" height="6"/>
    <rect x="30" y="28" width="3" height="6"/>
    <rect x="34" y="36" width="3" height="6"/>
    <rect x="52" y="16" width="3" height="6"/>
    <rect x="58" y="24" width="3" height="6"/>
    <rect x="74" y="36" width="3" height="6"/>
    <rect x="78" y="44" width="3" height="6"/>
    <rect x="96" y="48" width="3" height="6"/>
  </g>
</svg>
